<?xml version="1.0" encoding="UTF-8" standalone="no"?>
<!DOCTYPE svg PUBLIC "-//W3C//DTD SVG 1.1//EN"
 "http://www.w3.org/Graphics/SVG/1.1/DTD/svg11.dtd">
<!-- Generated by graphviz version 2.50.0 (20211204.2007)
 -->
<!-- Pages: 1 -->
<svg width="1062pt" height="404pt"
 viewBox="0.00 0.00 1061.77 404.00" xmlns="http://www.w3.org/2000/svg" xmlns:xlink="http://www.w3.org/1999/xlink">
<g id="graph0" class="graph" transform="scale(1 1) rotate(0) translate(4 400)">
<polygon fill="white" stroke="transparent" points="-4,4 -4,-400 1057.77,-400 1057.77,4 -4,4"/>
<!-- [root] aws_subnet.private_1 (expand) -->
<g id="node1" class="node">
<title>[root] aws_subnet.private_1 (expand)</title>
<polygon fill="none" stroke="black" points="991.77,-252 857.77,-252 857.77,-216 991.77,-216 991.77,-252"/>
<text text-anchor="middle" x="924.77" y="-230.3" font-family="Times,serif" font-size="14.00">aws_subnet.private_1</text>
</g>
<!-- [root] aws_vpc.krasteki&#45;vpc (expand) -->
<g id="node7" class="node">
<title>[root] aws_vpc.krasteki&#45;vpc (expand)</title>
<polygon fill="none" stroke="black" points="617.77,-180 483.77,-180 483.77,-144 617.77,-144 617.77,-180"/>
<text text-anchor="middle" x="550.77" y="-158.3" font-family="Times,serif" font-size="14.00">aws_vpc.krasteki&#45;vpc</text>
</g>
<!-- [root] aws_subnet.private_1 (expand)&#45;&gt;[root] aws_vpc.krasteki&#45;vpc (expand) -->
<g id="edge1" class="edge">
<title>[root] aws_subnet.private_1 (expand)&#45;&gt;[root] aws_vpc.krasteki&#45;vpc (expand)</title>
<path fill="none" stroke="black" d="M857.62,-217.94C854.29,-217.27 851,-216.62 847.77,-216 753.18,-197.87 726.2,-198.79 627.92,-180.16"/>
<polygon fill="black" stroke="black" points="628.34,-176.68 617.86,-178.23 627.02,-183.55 628.34,-176.68"/>
</g>
<!-- [root] var.private_subnet_1 -->
<g id="node9" class="node">
<title>[root] var.private_subnet_1</title>
<polygon fill="none" stroke="black" points="1047.77,-180 923.77,-180 923.77,-144 1053.77,-144 1053.77,-174 1047.77,-180"/>
<polyline fill="none" stroke="black" points="1047.77,-180 1047.77,-174 "/>
<polyline fill="none" stroke="black" points="1053.77,-174 1047.77,-174 "/>
<text text-anchor="middle" x="988.77" y="-158.3" font-family="Times,serif" font-size="14.00">var.private_subnet_1</text>
</g>
<!-- [root] aws_subnet.private_1 (expand)&#45;&gt;[root] var.private_subnet_1 -->
<g id="edge2" class="edge">
<title>[root] aws_subnet.private_1 (expand)&#45;&gt;[root] var.private_subnet_1</title>
<path fill="none" stroke="black" d="M940.59,-215.7C948.34,-207.22 957.81,-196.86 966.29,-187.58"/>
<polygon fill="black" stroke="black" points="968.97,-189.85 973.13,-180.1 963.8,-185.12 968.97,-189.85"/>
</g>
<!-- [root] aws_subnet.private_2 (expand) -->
<g id="node2" class="node">
<title>[root] aws_subnet.private_2 (expand)</title>
<polygon fill="none" stroke="black" points="239.77,-252 105.77,-252 105.77,-216 239.77,-216 239.77,-252"/>
<text text-anchor="middle" x="172.77" y="-230.3" font-family="Times,serif" font-size="14.00">aws_subnet.private_2</text>
</g>
<!-- [root] aws_subnet.private_2 (expand)&#45;&gt;[root] aws_vpc.krasteki&#45;vpc (expand) -->
<g id="edge3" class="edge">
<title>[root] aws_subnet.private_2 (expand)&#45;&gt;[root] aws_vpc.krasteki&#45;vpc (expand)</title>
<path fill="none" stroke="black" d="M239.86,-217.76C242.87,-217.15 245.85,-216.56 248.77,-216 345.55,-197.49 373.16,-198.99 473.71,-180.13"/>
<polygon fill="black" stroke="black" points="474.51,-183.55 483.68,-178.24 473.2,-176.67 474.51,-183.55"/>
</g>
<!-- [root] var.private_subnet_2 -->
<g id="node10" class="node">
<title>[root] var.private_subnet_2</title>
<polygon fill="none" stroke="black" points="167.77,-180 43.77,-180 43.77,-144 173.77,-144 173.77,-174 167.77,-180"/>
<polyline fill="none" stroke="black" points="167.77,-180 167.77,-174 "/>
<polyline fill="none" stroke="black" points="173.77,-174 167.77,-174 "/>
<text text-anchor="middle" x="108.77" y="-158.3" font-family="Times,serif" font-size="14.00">var.private_subnet_2</text>
</g>
<!-- [root] aws_subnet.private_2 (expand)&#45;&gt;[root] var.private_subnet_2 -->
<g id="edge4" class="edge">
<title>[root] aws_subnet.private_2 (expand)&#45;&gt;[root] var.private_subnet_2</title>
<path fill="none" stroke="black" d="M156.95,-215.7C149.2,-207.22 139.73,-196.86 131.24,-187.58"/>
<polygon fill="black" stroke="black" points="133.74,-185.12 124.41,-180.1 128.57,-189.85 133.74,-185.12"/>
</g>
<!-- [root] aws_subnet.private_3 (expand) -->
<g id="node3" class="node">
<title>[root] aws_subnet.private_3 (expand)</title>
<polygon fill="none" stroke="black" points="391.77,-252 257.77,-252 257.77,-216 391.77,-216 391.77,-252"/>
<text text-anchor="middle" x="324.77" y="-230.3" font-family="Times,serif" font-size="14.00">aws_subnet.private_3</text>
</g>
<!-- [root] aws_subnet.private_3 (expand)&#45;&gt;[root] aws_vpc.krasteki&#45;vpc (expand) -->
<g id="edge5" class="edge">
<title>[root] aws_subnet.private_3 (expand)&#45;&gt;[root] aws_vpc.krasteki&#45;vpc (expand)</title>
<path fill="none" stroke="black" d="M379.77,-215.97C411.75,-206.06 452.25,-193.51 485.81,-183.12"/>
<polygon fill="black" stroke="black" points="487.01,-186.41 495.52,-180.11 484.94,-179.73 487.01,-186.41"/>
</g>
<!-- [root] var.private_subnet_3 -->
<g id="node11" class="node">
<title>[root] var.private_subnet_3</title>
<polygon fill="none" stroke="black" points="315.77,-180 191.77,-180 191.77,-144 321.77,-144 321.77,-174 315.77,-180"/>
<polyline fill="none" stroke="black" points="315.77,-180 315.77,-174 "/>
<polyline fill="none" stroke="black" points="321.77,-174 315.77,-174 "/>
<text text-anchor="middle" x="256.77" y="-158.3" font-family="Times,serif" font-size="14.00">var.private_subnet_3</text>
</g>
<!-- [root] aws_subnet.private_3 (expand)&#45;&gt;[root] var.private_subnet_3 -->
<g id="edge6" class="edge">
<title>[root] aws_subnet.private_3 (expand)&#45;&gt;[root] var.private_subnet_3</title>
<path fill="none" stroke="black" d="M307.96,-215.7C299.64,-207.14 289.46,-196.66 280.38,-187.3"/>
<polygon fill="black" stroke="black" points="282.86,-184.84 273.38,-180.1 277.84,-189.72 282.86,-184.84"/>
</g>
<!-- [root] aws_subnet.public_1 (expand) -->
<g id="node4" class="node">
<title>[root] aws_subnet.public_1 (expand)</title>
<polygon fill="none" stroke="black" points="541.27,-252 410.27,-252 410.27,-216 541.27,-216 541.27,-252"/>
<text text-anchor="middle" x="475.77" y="-230.3" font-family="Times,serif" font-size="14.00">aws_subnet.public_1</text>
</g>
<!-- [root] aws_subnet.public_1 (expand)&#45;&gt;[root] aws_vpc.krasteki&#45;vpc (expand) -->
<g id="edge7" class="edge">
<title>[root] aws_subnet.public_1 (expand)&#45;&gt;[root] aws_vpc.krasteki&#45;vpc (expand)</title>
<path fill="none" stroke="black" d="M494.31,-215.7C503.57,-207.05 514.93,-196.45 525.02,-187.03"/>
<polygon fill="black" stroke="black" points="527.52,-189.49 532.44,-180.1 522.74,-184.37 527.52,-189.49"/>
</g>
<!-- [root] var.public_subnet_1 -->
<g id="node12" class="node">
<title>[root] var.public_subnet_1</title>
<polygon fill="none" stroke="black" points="459.77,-180 339.77,-180 339.77,-144 465.77,-144 465.77,-174 459.77,-180"/>
<polyline fill="none" stroke="black" points="459.77,-180 459.77,-174 "/>
<polyline fill="none" stroke="black" points="465.77,-174 459.77,-174 "/>
<text text-anchor="middle" x="402.77" y="-158.3" font-family="Times,serif" font-size="14.00">var.public_subnet_1</text>
</g>
<!-- [root] aws_subnet.public_1 (expand)&#45;&gt;[root] var.public_subnet_1 -->
<g id="edge8" class="edge">
<title>[root] aws_subnet.public_1 (expand)&#45;&gt;[root] var.public_subnet_1</title>
<path fill="none" stroke="black" d="M457.72,-215.7C448.71,-207.05 437.65,-196.45 427.83,-187.03"/>
<polygon fill="black" stroke="black" points="430.25,-184.5 420.61,-180.1 425.4,-189.55 430.25,-184.5"/>
</g>
<!-- [root] aws_subnet.public_2 (expand) -->
<g id="node5" class="node">
<title>[root] aws_subnet.public_2 (expand)</title>
<polygon fill="none" stroke="black" points="690.27,-252 559.27,-252 559.27,-216 690.27,-216 690.27,-252"/>
<text text-anchor="middle" x="624.77" y="-230.3" font-family="Times,serif" font-size="14.00">aws_subnet.public_2</text>
</g>
<!-- [root] aws_subnet.public_2 (expand)&#45;&gt;[root] aws_vpc.krasteki&#45;vpc (expand) -->
<g id="edge9" class="edge">
<title>[root] aws_subnet.public_2 (expand)&#45;&gt;[root] aws_vpc.krasteki&#45;vpc (expand)</title>
<path fill="none" stroke="black" d="M606.48,-215.7C597.34,-207.05 586.13,-196.45 576.17,-187.03"/>
<polygon fill="black" stroke="black" points="578.52,-184.43 568.85,-180.1 573.71,-189.52 578.52,-184.43"/>
</g>
<!-- [root] var.public_subnet_2 -->
<g id="node13" class="node">
<title>[root] var.public_subnet_2</title>
<polygon fill="none" stroke="black" points="755.77,-180 635.77,-180 635.77,-144 761.77,-144 761.77,-174 755.77,-180"/>
<polyline fill="none" stroke="black" points="755.77,-180 755.77,-174 "/>
<polyline fill="none" stroke="black" points="761.77,-174 755.77,-174 "/>
<text text-anchor="middle" x="698.77" y="-158.3" font-family="Times,serif" font-size="14.00">var.public_subnet_2</text>
</g>
<!-- [root] aws_subnet.public_2 (expand)&#45;&gt;[root] var.public_subnet_2 -->
<g id="edge10" class="edge">
<title>[root] aws_subnet.public_2 (expand)&#45;&gt;[root] var.public_subnet_2</title>
<path fill="none" stroke="black" d="M643.06,-215.7C652.2,-207.05 663.41,-196.45 673.37,-187.03"/>
<polygon fill="black" stroke="black" points="675.83,-189.52 680.69,-180.1 671.02,-184.43 675.83,-189.52"/>
</g>
<!-- [root] aws_subnet.public_3 (expand) -->
<g id="node6" class="node">
<title>[root] aws_subnet.public_3 (expand)</title>
<polygon fill="none" stroke="black" points="839.27,-252 708.27,-252 708.27,-216 839.27,-216 839.27,-252"/>
<text text-anchor="middle" x="773.77" y="-230.3" font-family="Times,serif" font-size="14.00">aws_subnet.public_3</text>
</g>
<!-- [root] aws_subnet.public_3 (expand)&#45;&gt;[root] aws_vpc.krasteki&#45;vpc (expand) -->
<g id="edge11" class="edge">
<title>[root] aws_subnet.public_3 (expand)&#45;&gt;[root] aws_vpc.krasteki&#45;vpc (expand)</title>
<path fill="none" stroke="black" d="M719.5,-215.97C687.94,-206.06 647.98,-193.51 614.87,-183.12"/>
<polygon fill="black" stroke="black" points="615.87,-179.77 605.28,-180.11 613.77,-186.45 615.87,-179.77"/>
</g>
<!-- [root] var.public_subnet_3 -->
<g id="node14" class="node">
<title>[root] var.public_subnet_3</title>
<polygon fill="none" stroke="black" points="899.77,-180 779.77,-180 779.77,-144 905.77,-144 905.77,-174 899.77,-180"/>
<polyline fill="none" stroke="black" points="899.77,-180 899.77,-174 "/>
<polyline fill="none" stroke="black" points="905.77,-174 899.77,-174 "/>
<text text-anchor="middle" x="842.77" y="-158.3" font-family="Times,serif" font-size="14.00">var.public_subnet_3</text>
</g>
<!-- [root] aws_subnet.public_3 (expand)&#45;&gt;[root] var.public_subnet_3 -->
<g id="edge12" class="edge">
<title>[root] aws_subnet.public_3 (expand)&#45;&gt;[root] var.public_subnet_3</title>
<path fill="none" stroke="black" d="M790.82,-215.7C799.26,-207.14 809.59,-196.66 818.81,-187.3"/>
<polygon fill="black" stroke="black" points="821.38,-189.68 825.91,-180.1 816.4,-184.77 821.38,-189.68"/>
</g>
<!-- [root] provider[&quot;registry.terraform.io/hashicorp/aws&quot;] -->
<g id="node8" class="node">
<title>[root] provider[&quot;registry.terraform.io/hashicorp/aws&quot;]</title>
<polygon fill="none" stroke="black" points="252.77,-108 0.23,-90 252.77,-72 505.3,-90 252.77,-108"/>
<text text-anchor="middle" x="252.77" y="-86.3" font-family="Times,serif" font-size="14.00">provider[&quot;registry.terraform.io/hashicorp/aws&quot;]</text>
</g>
<!-- [root] aws_vpc.krasteki&#45;vpc (expand)&#45;&gt;[root] provider[&quot;registry.terraform.io/hashicorp/aws&quot;] -->
<g id="edge13" class="edge">
<title>[root] aws_vpc.krasteki&#45;vpc (expand)&#45;&gt;[root] provider[&quot;registry.terraform.io/hashicorp/aws&quot;]</title>
<path fill="none" stroke="black" d="M483.52,-145.2C434.05,-133.58 367.18,-117.88 318.16,-106.36"/>
<polygon fill="black" stroke="black" points="318.83,-102.92 308.29,-104.04 317.23,-109.74 318.83,-102.92"/>
</g>
<!-- [root] var.tag -->
<g id="node16" class="node">
<title>[root] var.tag</title>
<polygon fill="none" stroke="black" points="571.77,-108 523.77,-108 523.77,-72 577.77,-72 577.77,-102 571.77,-108"/>
<polyline fill="none" stroke="black" points="571.77,-108 571.77,-102 "/>
<polyline fill="none" stroke="black" points="577.77,-102 571.77,-102 "/>
<text text-anchor="middle" x="550.77" y="-86.3" font-family="Times,serif" font-size="14.00">var.tag</text>
</g>
<!-- [root] aws_vpc.krasteki&#45;vpc (expand)&#45;&gt;[root] var.tag -->
<g id="edge14" class="edge">
<title>[root] aws_vpc.krasteki&#45;vpc (expand)&#45;&gt;[root] var.tag</title>
<path fill="none" stroke="black" d="M550.77,-143.7C550.77,-135.98 550.77,-126.71 550.77,-118.11"/>
<polygon fill="black" stroke="black" points="554.27,-118.1 550.77,-108.1 547.27,-118.1 554.27,-118.1"/>
</g>
<!-- [root] var.vpc_cidr -->
<g id="node17" class="node">
<title>[root] var.vpc_cidr</title>
<polygon fill="none" stroke="black" points="673.77,-108 595.77,-108 595.77,-72 679.77,-72 679.77,-102 673.77,-108"/>
<polyline fill="none" stroke="black" points="673.77,-108 673.77,-102 "/>
<polyline fill="none" stroke="black" points="679.77,-102 673.77,-102 "/>
<text text-anchor="middle" x="637.77" y="-86.3" font-family="Times,serif" font-size="14.00">var.vpc_cidr</text>
</g>
<!-- [root] aws_vpc.krasteki&#45;vpc (expand)&#45;&gt;[root] var.vpc_cidr -->
<g id="edge15" class="edge">
<title>[root] aws_vpc.krasteki&#45;vpc (expand)&#45;&gt;[root] var.vpc_cidr</title>
<path fill="none" stroke="black" d="M572.27,-143.7C583.23,-134.88 596.71,-124.03 608.59,-114.47"/>
<polygon fill="black" stroke="black" points="610.91,-117.1 616.51,-108.1 606.52,-111.65 610.91,-117.1"/>
</g>
<!-- [root] var.region -->
<g id="node15" class="node">
<title>[root] var.region</title>
<polygon fill="none" stroke="black" points="282.27,-36 217.27,-36 217.27,0 288.27,0 288.27,-30 282.27,-36"/>
<polyline fill="none" stroke="black" points="282.27,-36 282.27,-30 "/>
<polyline fill="none" stroke="black" points="288.27,-30 282.27,-30 "/>
<text text-anchor="middle" x="252.77" y="-14.3" font-family="Times,serif" font-size="14.00">var.region</text>
</g>
<!-- [root] provider[&quot;registry.terraform.io/hashicorp/aws&quot;]&#45;&gt;[root] var.region -->
<g id="edge22" class="edge">
<title>[root] provider[&quot;registry.terraform.io/hashicorp/aws&quot;]&#45;&gt;[root] var.region</title>
<path fill="none" stroke="black" d="M252.77,-71.7C252.77,-63.98 252.77,-54.71 252.77,-46.11"/>
<polygon fill="black" stroke="black" points="256.27,-46.1 252.77,-36.1 249.27,-46.1 256.27,-46.1"/>
</g>
<!-- [root] provider[&quot;registry.terraform.io/hashicorp/aws&quot;] (close) -->
<g id="node18" class="node">
<title>[root] provider[&quot;registry.terraform.io/hashicorp/aws&quot;] (close)</title>
<ellipse fill="none" stroke="black" cx="549.77" cy="-306" rx="227.46" ry="18"/>
<text text-anchor="middle" x="549.77" y="-302.3" font-family="Times,serif" font-size="14.00">[root] provider[&quot;registry.terraform.io/hashicorp/aws&quot;] (close)</text>
</g>
<!-- [root] provider[&quot;registry.terraform.io/hashicorp/aws&quot;] (close)&#45;&gt;[root] aws_subnet.private_1 (expand) -->
<g id="edge16" class="edge">
<title>[root] provider[&quot;registry.terraform.io/hashicorp/aws&quot;] (close)&#45;&gt;[root] aws_subnet.private_1 (expand)</title>
<path fill="none" stroke="black" d="M642.57,-289.51C701.47,-279.43 779.23,-265.66 847.77,-252 847.87,-251.98 847.97,-251.96 848.07,-251.94"/>
<polygon fill="black" stroke="black" points="848.51,-255.42 857.61,-250 847.11,-248.56 848.51,-255.42"/>
</g>
<!-- [root] provider[&quot;registry.terraform.io/hashicorp/aws&quot;] (close)&#45;&gt;[root] aws_subnet.private_2 (expand) -->
<g id="edge17" class="edge">
<title>[root] provider[&quot;registry.terraform.io/hashicorp/aws&quot;] (close)&#45;&gt;[root] aws_subnet.private_2 (expand)</title>
<path fill="none" stroke="black" d="M455.67,-289.57C398.77,-279.97 324.54,-266.97 249.92,-252.19"/>
<polygon fill="black" stroke="black" points="250.36,-248.71 239.87,-250.18 248.99,-255.57 250.36,-248.71"/>
</g>
<!-- [root] provider[&quot;registry.terraform.io/hashicorp/aws&quot;] (close)&#45;&gt;[root] aws_subnet.private_3 (expand) -->
<g id="edge18" class="edge">
<title>[root] provider[&quot;registry.terraform.io/hashicorp/aws&quot;] (close)&#45;&gt;[root] aws_subnet.private_3 (expand)</title>
<path fill="none" stroke="black" d="M496.45,-288.41C464.39,-278.44 423.38,-265.68 389.48,-255.13"/>
<polygon fill="black" stroke="black" points="390.25,-251.71 379.66,-252.08 388.17,-258.39 390.25,-251.71"/>
</g>
<!-- [root] provider[&quot;registry.terraform.io/hashicorp/aws&quot;] (close)&#45;&gt;[root] aws_subnet.public_1 (expand) -->
<g id="edge19" class="edge">
<title>[root] provider[&quot;registry.terraform.io/hashicorp/aws&quot;] (close)&#45;&gt;[root] aws_subnet.public_1 (expand)</title>
<path fill="none" stroke="black" d="M531.85,-288.05C522.65,-279.35 511.28,-268.59 501.19,-259.04"/>
<polygon fill="black" stroke="black" points="503.44,-256.36 493.77,-252.03 498.63,-261.45 503.44,-256.36"/>
</g>
<!-- [root] provider[&quot;registry.terraform.io/hashicorp/aws&quot;] (close)&#45;&gt;[root] aws_subnet.public_2 (expand) -->
<g id="edge20" class="edge">
<title>[root] provider[&quot;registry.terraform.io/hashicorp/aws&quot;] (close)&#45;&gt;[root] aws_subnet.public_2 (expand)</title>
<path fill="none" stroke="black" d="M567.92,-288.05C577.25,-279.35 588.78,-268.59 599.01,-259.04"/>
<polygon fill="black" stroke="black" points="601.6,-261.41 606.52,-252.03 596.82,-256.3 601.6,-261.41"/>
</g>
<!-- [root] provider[&quot;registry.terraform.io/hashicorp/aws&quot;] (close)&#45;&gt;[root] aws_subnet.public_3 (expand) -->
<g id="edge21" class="edge">
<title>[root] provider[&quot;registry.terraform.io/hashicorp/aws&quot;] (close)&#45;&gt;[root] aws_subnet.public_3 (expand)</title>
<path fill="none" stroke="black" d="M602.85,-288.41C634.76,-278.44 675.59,-265.68 709.34,-255.13"/>
<polygon fill="black" stroke="black" points="710.62,-258.4 719.12,-252.08 708.53,-251.72 710.62,-258.4"/>
</g>
<!-- [root] root -->
<g id="node19" class="node">
<title>[root] root</title>
<ellipse fill="none" stroke="black" cx="549.77" cy="-378" rx="47.39" ry="18"/>
<text text-anchor="middle" x="549.77" y="-374.3" font-family="Times,serif" font-size="14.00">[root] root</text>
</g>
<!-- [root] root&#45;&gt;[root] provider[&quot;registry.terraform.io/hashicorp/aws&quot;] (close) -->
<g id="edge23" class="edge">
<title>[root] root&#45;&gt;[root] provider[&quot;registry.terraform.io/hashicorp/aws&quot;] (close)</title>
<path fill="none" stroke="black" d="M549.77,-359.7C549.77,-351.98 549.77,-342.71 549.77,-334.11"/>
<polygon fill="black" stroke="black" points="553.27,-334.1 549.77,-324.1 546.27,-334.1 553.27,-334.1"/>
</g>
</g>
</svg>
